<svg width="500" height="500" viewBox="0 0 500 500" fill="none" xmlns="http://www.w3.org/2000/svg">
<rect width="500" height="500" rx="250" fill="url(#paint0_linear_8_8)"/>
<path d="M264.152 156.848L264.047 156.953C263.186 157.009 262.328 157.108 261.477 157.251L261.376 157.268L247.139 161.181L247.135 161.183C240.54 162.966 235.087 169.798 235.087 176.793C235.087 180.373 236.526 183.41 239.008 185.293C241.487 187.173 244.788 187.737 248.189 186.806L262.328 182.92C269.108 181.131 274.382 174.277 274.382 167.307C274.382 164.458 273.457 161.941 271.765 160.075C270.074 158.209 267.716 157.106 265.064 156.914L264.152 156.848Z" fill="white"/>
<path fill-rule="evenodd" clip-rule="evenodd" d="M274.692 313.176V188.692L223.344 201.942L223.315 201.95C220.841 202.668 218.707 203.439 216.96 204.278C215.231 205.108 213.767 206.059 212.736 207.188C210.731 209.387 209.885 212.241 209.883 215.662C209.839 219.241 211.124 222.709 213.49 225.395L213.532 225.443L213.577 225.488C216.028 227.939 219 229.496 222.453 229.496C224.457 229.496 227.015 228.961 230.287 228.027L247.991 223.404V313.188H234.732V264.504C234.732 254.482 231.087 246.134 223.62 239.821C218.033 234.919 210.682 232.651 201.948 232.651L201.944 232.651C197.448 232.66 192.992 233.497 188.8 235.121L188.79 235.125L188.78 235.129C185.141 236.583 181.43 238.789 177.855 241.48C175.075 238.853 172.196 236.659 169.125 235.2C165.836 233.44 162.165 232.513 158.434 232.5H158.427C154.321 232.5 150.612 233.158 147.189 234.696L147.169 234.705L147.15 234.714C144.912 235.778 142.559 237.386 140.057 239.488V235.608H116.595C110.952 235.608 106.498 236.717 103.625 239.202L103.596 239.227L103.569 239.253C100.809 241.829 99.5111 245.016 99.5111 248.799C99.5111 252.708 100.785 255.894 103.545 258.477C105.919 260.834 109.409 261.854 113.507 262.09V313.251C109.376 313.52 105.922 314.667 103.57 316.991C100.785 319.431 99.5111 322.639 99.5111 326.383C99.5111 330.279 100.773 333.634 103.569 336.244L103.596 336.269L103.624 336.293C106.525 338.807 111.044 339.721 116.595 339.721H136.961C142.537 339.721 147.026 338.792 149.926 336.298L149.947 336.281L149.967 336.262C151.323 335.031 152.402 333.525 153.132 331.844C153.857 330.175 154.221 328.371 154.2 326.552C154.237 324.742 153.876 322.947 153.144 321.292C152.411 319.636 151.324 318.162 149.96 316.972C147.505 314.695 144.187 313.529 140.049 313.256V270.317C143.591 265.644 146.216 262.857 148.389 261.579L148.426 261.557L148.461 261.534C150.9 259.956 153.014 259.214 155.148 259.214C157.38 259.214 158.638 259.854 159.406 260.718L159.48 260.801L159.562 260.875C160.281 261.523 160.92 263.053 160.92 266.385V339.73H184.53C190.123 339.73 194.446 338.794 197.339 336.307L197.37 336.28L197.4 336.252C200.181 333.657 201.458 330.304 201.458 326.551C201.458 322.83 200.203 319.444 197.372 316.98C194.932 314.717 191.638 313.549 187.617 313.268V270.323C191.285 265.542 194.241 262.513 196.674 260.901L196.682 260.896L196.69 260.89C198.364 259.758 200.348 259.172 202.369 259.213L202.39 259.214H202.41C204.764 259.214 205.959 259.765 206.668 260.562C207.412 261.399 208.027 263.11 208.027 266.372V339.73H291.267L291.343 339.724C304.795 338.69 313.785 336.119 320.326 333.136C321.798 334.509 323.405 335.73 325.124 336.781C331.736 341.072 339.903 343.152 349.357 343.152C365.753 343.152 378.671 335.952 387.432 322.007C396.166 308.188 400.488 293.83 400.488 278.651L400.488 253.783L400.488 253.775C400.537 241.464 397.519 229.335 391.707 218.482C386.047 207.635 379.783 199.811 372.969 195.649C366.367 191.364 358.358 189.278 349.047 189.278C332.485 189.278 319.729 196.486 310.823 210.575L310.819 210.582L310.814 210.589C302.239 224.4 297.916 238.753 297.916 253.779V278.65C297.89 289.56 300.222 300.34 304.743 310.252C304.646 310.3 304.554 310.342 304.46 310.379L304.368 310.416L304.281 310.461C300.814 312.262 296.394 312.877 291.154 313.176H274.692ZM339.853 277.164C344.738 264.295 347.815 243.791 348.536 215.976C342.564 216.108 337.702 218.604 333.82 223.597C327.611 231.578 324.445 241.697 324.445 253.775V278.66L324.445 278.67C324.385 284.834 325.396 290.956 327.424 296.763C332.069 292.889 336.385 286.368 339.852 277.169L339.853 277.164ZM349.316 316.455C348.155 316.46 346.998 316.376 345.854 316.207C354.401 308.832 360.822 298.484 365.189 286.646C369.233 275.982 371.928 263.48 373.591 248.89C373.721 250.504 373.777 252.126 373.758 253.751L373.758 253.763V278.651C373.758 290.729 370.591 300.847 364.383 308.829C360.385 313.967 355.357 316.455 349.324 316.455L349.316 316.455Z" fill="white"/>
<defs>
<linearGradient id="paint0_linear_8_8" x1="250" y1="500" x2="250" y2="53.1401" gradientUnits="userSpaceOnUse">
<stop offset="0.152202" stop-color="#4000FF"/>
<stop offset="1" stop-color="#0055FF"/>
</linearGradient>
</defs>
</svg>
